# xmcd
#
# Track frame offsets:
#   150
#   22456
#   30240
#   47123
#   62486
#   75270
#   88801
#   105831
#   121388
#   137434
#   155699
#
# Disc length: 2269 seconds
#
# Revision: 0
# Processed by: cddbd v1.5.2PL0 Copyright (c) Steve Scherf et al.
# Submitted via: GXTranscoder 2.0.1939
#
DISCID=8008db0b
DTITLE=wm -em songs - partiiih
DYEAR=2008
DGENRE=Country
TTITLE0=zeit das sich was dreht
TTITLE1=party nonstop
TTITLE2=backpacka
TTITLE3=schwarz und weiﬂ
TTITLE4=l‰rm
TTITLE5=helden 2008
TTITLE6=football is coming home
TTITLE7=feel the rush
TTITLE8=dont sweat that
TTITLE9=ka
TTITLE10=kp
EXTD=dddd
EXTT0=
EXTT1=
EXTT2=
EXTT3=
EXTT4=
EXTT5=
EXTT6=
EXTT7=
EXTT8=
EXTT9=
EXTT10=
PLAYORDER=
